<?xml version="1.0" encoding="utf-8"?>
<!-- Generator: Adobe Illustrator 16.0.4, SVG Export Plug-In . SVG Version: 6.00 Build 0)  -->
<!DOCTYPE svg PUBLIC "-//W3C//DTD SVG 1.1//EN" "http://www.w3.org/Graphics/SVG/1.1/DTD/svg11.dtd">
<svg version="1.1" id="Layer_1" xmlns="http://www.w3.org/2000/svg" xmlns:xlink="http://www.w3.org/1999/xlink" x="0px" y="0px"
	 width="500px" height="500px" viewBox="0 0 500 500" enable-background="new 0 0 500 500" xml:space="preserve">
<path fill="#FFFFFF" d="M310.797,28.506c-0.562,0.243-1.164,0.403-1.797,0.477c0.648-0.374,1.139-0.966,1.375-1.67
	c-0.602,0.348-1.276,0.599-1.984,0.734c-0.568-0.589-1.385-0.954-2.279-0.954c-2.021,0-3.508,1.818-3.047,3.711
	c-2.598-0.131-4.899-1.332-6.44-3.16c-0.823,1.355-0.429,3.135,0.964,4.037c-0.51-0.018-0.992-0.154-1.414-0.381
	c-0.031,1.402,1.004,2.71,2.51,2.999c-0.44,0.119-0.924,0.145-1.414,0.053c0.397,1.202,1.553,2.076,2.922,2.1
	c-1.314,0.998-2.967,1.44-4.625,1.251c1.383,0.859,3.023,1.357,4.791,1.357c5.805,0,9.078-4.738,8.885-8.987
	C309.846,29.647,310.379,29.113,310.797,28.506z"/>
<path fill="#FFFFFF" d="M335.81,27.879l1.69,0.003v-0.767l0.002-0.751v-0.126c0.001-0.722,0.021-1.839,0.547-2.53
	c0.558-0.73,1.318-1.229,2.627-1.227c2.131,0.005,3.029,0.311,3.029,0.311l-0.428,2.503c0,0-0.703-0.205-1.361-0.207
	c-0.656-0.001-1.244,0.233-1.246,0.89l-0.002,0.267v0.876l-0.002,0.767l2.694,0.005l-0.19,2.443l-2.508-0.002l-0.016,8.492
	l-3.172-0.004l0.018-8.496l-1.688-0.001L335.81,27.879L335.81,27.879z"/>
<path fill="#FFFFFF" d="M374.861,23.288c-4.646,0-6.989,3.331-6.989,6.108c0,1.681,0.638,3.177,2.003,3.735
	c0.225,0.092,0.426,0.003,0.49-0.244c0.043-0.173,0.15-0.604,0.199-0.785c0.064-0.245,0.039-0.331-0.143-0.545
	c-0.393-0.465-0.645-1.066-0.645-1.918c0-2.471,1.85-4.683,4.812-4.683c2.625,0,4.068,1.604,4.068,3.746
	c0,2.82-1.248,5.199-3.102,5.199c-1.021,0-1.789-0.846-1.545-1.883c0.295-1.24,0.865-2.576,0.865-3.471
	c0-0.799-0.432-1.467-1.32-1.467c-1.045,0-1.885,1.081-1.885,2.53c0,0.923,0.312,1.547,0.312,1.547s-1.07,4.535-1.258,5.329
	c-0.375,1.58-0.057,3.519-0.029,3.714c0.016,0.117,0.166,0.145,0.23,0.057c0.1-0.125,1.346-1.664,1.768-3.199
	c0.117-0.436,0.688-2.689,0.688-2.689c0.342,0.648,1.334,1.221,2.391,1.221c3.145,0,5.273-2.867,5.273-6.703
	C381.051,25.989,378.596,23.288,374.861,23.288z"/>
<path d="M310.797,61.849c-0.562,0.243-1.164,0.403-1.797,0.477c0.648-0.374,1.139-0.966,1.375-1.67
	c-0.602,0.348-1.276,0.599-1.984,0.734c-0.568-0.589-1.385-0.954-2.279-0.954c-2.021,0-3.508,1.818-3.047,3.711
	c-2.598-0.131-4.899-1.332-6.44-3.16c-0.823,1.354-0.429,3.135,0.964,4.037c-0.51-0.018-0.992-0.154-1.414-0.381
	c-0.031,1.402,1.004,2.71,2.51,2.999c-0.44,0.119-0.924,0.145-1.414,0.053c0.397,1.202,1.553,2.076,2.922,2.1
	c-1.314,0.998-2.967,1.44-4.625,1.251c1.383,0.859,3.023,1.357,4.791,1.357c5.805,0,9.078-4.738,8.885-8.987
	C309.846,62.99,310.379,62.456,310.797,61.849z"/>
<path d="M335.81,61.222l1.69,0.003v-0.767l0.002-0.751v-0.126c0.001-0.722,0.021-1.839,0.547-2.53
	c0.558-0.729,1.318-1.229,2.627-1.227c2.131,0.005,3.029,0.311,3.029,0.311l-0.428,2.503c0,0-0.703-0.205-1.361-0.207
	c-0.656-0.001-1.244,0.233-1.246,0.89l-0.002,0.267v0.876l-0.002,0.767l2.694,0.005l-0.19,2.443l-2.508-0.002l-0.016,8.492
	l-3.172-0.004l0.018-8.496l-1.688-0.001L335.81,61.222L335.81,61.222z"/>
<path d="M374.861,56.631c-4.646,0-6.989,3.331-6.989,6.108c0,1.681,0.638,3.177,2.003,3.735c0.225,0.092,0.426,0.003,0.49-0.244
	c0.043-0.173,0.15-0.604,0.199-0.785c0.064-0.245,0.039-0.331-0.143-0.545c-0.393-0.465-0.645-1.066-0.645-1.918
	c0-2.471,1.85-4.683,4.812-4.683c2.625,0,4.068,1.604,4.068,3.746c0,2.82-1.248,5.199-3.102,5.199c-1.021,0-1.789-0.846-1.545-1.883
	c0.295-1.24,0.865-2.576,0.865-3.471c0-0.799-0.432-1.467-1.32-1.467c-1.045,0-1.885,1.081-1.885,2.53
	c0,0.923,0.312,1.547,0.312,1.547s-1.07,4.535-1.258,5.329c-0.375,1.58-0.057,3.519-0.029,3.714c0.016,0.117,0.166,0.145,0.23,0.057
	c0.1-0.125,1.346-1.664,1.768-3.199c0.117-0.436,0.688-2.689,0.688-2.689c0.342,0.648,1.334,1.221,2.391,1.221
	c3.145,0,5.273-2.867,5.273-6.703C381.051,59.332,378.596,56.631,374.861,56.631z"/>
<g>
	<g>
		<path fill="#050605" d="M466.804,29.061c-0.133-0.115-0.32-0.213-0.566-0.295c-0.482-0.165-1.078-0.246-1.789-0.246h-0.039
			c-1.071,0.004-2.056,0.193-2.947,0.564l-0.342-0.102c-1.595-0.48-2.926-0.721-3.996-0.721h-0.029
			c-0.521,0.002-1.062,0.072-1.611,0.205c-0.46-0.551-1.108-0.831-1.93-0.83h-0.015c-1.031,0.004-2.015,0.406-2.938,1.195
			c-0.293,0.252-0.512,0.46-0.66,0.629c-0.148,0.168-0.232,0.285-0.242,0.412v0.037l0.076,0.072l0.051,0.051l0.153-0.105
			l0.011-0.006l0.008-0.008c1.145-1.32,2.315-1.971,3.527-1.975h0.016c0.729,0,1.254,0.22,1.617,0.637
			c-1.283,0.426-2.393,1.104-3.312,2.039c-0.946,0.965-1.434,1.926-1.434,2.879v0.01c0.004,0.461,0.139,0.842,0.414,1.117
			c0.271,0.277,0.646,0.412,1.104,0.412h0.011c1.046-0.002,2.004-0.49,2.854-1.445c0.85-0.947,1.277-2.002,1.277-3.15V30.42
			c-0.002-0.385-0.084-0.778-0.229-1.178c0.504,0.014,0.98,0.055,1.422,0.131c0.309,0.061,0.961,0.223,1.955,0.482l0,0l0.619,0.156
			c-0.704,0.486-1.328,1.012-1.854,1.584c-0.561,0.611-1.16,1.424-1.809,2.438c-0.915,1.432-1.727,2.447-2.426,3.044l0,0
			c-1.059,0.896-2.135,1.339-3.236,1.343h-0.012c-0.649,0-1.182-0.154-1.604-0.461c-0.425-0.312-0.625-0.686-0.631-1.148l0,0v-0.006
			c0-0.149,0.041-0.307,0.117-0.469c-0.018,0.068-0.037,0.139-0.037,0.209v0.006c0,0.207,0.08,0.393,0.229,0.531
			c0.146,0.141,0.336,0.212,0.545,0.211h0.001l0,0c0.255,0,0.48-0.094,0.657-0.271c0.18-0.176,0.271-0.4,0.271-0.65v-0.004l0,0
			c0-0.242-0.09-0.451-0.262-0.607c-0.17-0.154-0.388-0.234-0.635-0.234h-0.006c-0.342,0-0.636,0.127-0.867,0.373
			c-0.23,0.244-0.348,0.553-0.348,0.906v0.008c0,0.581,0.279,1.062,0.809,1.415s1.203,0.524,2.023,0.524h0.02
			c1.363-0.004,2.682-0.32,3.955-0.947c0.836-0.411,1.496-0.938,1.979-1.578c0.479-0.641,0.982-1.65,1.521-3.039v0.002
			c0.347-0.881,0.656-1.535,0.926-1.957c0.26-0.41,0.609-0.785,1.043-1.127c1.23,0.357,2.383,0.538,3.453,0.538h0.033
			c0.938-0.005,1.721-0.11,2.344-0.317c0.311-0.104,0.548-0.223,0.713-0.359c0.165-0.139,0.26-0.305,0.26-0.49v-0.002h-0.086
			l0.086-0.002C467.015,29.316,466.938,29.174,466.804,29.061z M465.513,29.902h-0.021c-0.781,0-1.842-0.197-3.176-0.59l0,0l0,0
			c-0.145-0.041-0.26-0.072-0.355-0.098c0.759-0.254,1.566-0.391,2.434-0.393h0.034c0.626,0,1.167,0.065,1.622,0.205
			c0.23,0.068,0.4,0.143,0.506,0.221c0.104,0.08,0.145,0.148,0.145,0.213l0,0c0,0.092-0.078,0.195-0.307,0.295
			C466.169,29.85,465.876,29.898,465.513,29.902z M450.747,33.48c0-0.98,0.513-1.932,1.565-2.854
			c1.038-0.91,2.112-1.365,3.233-1.387c0.061,0.184,0.092,0.375,0.093,0.576v0.014c0,1.008-0.431,2.064-1.308,3.17
			c-0.881,1.113-1.726,1.652-2.521,1.654h-0.006c-0.33-0.002-0.575-0.104-0.77-0.311c-0.189-0.209-0.287-0.488-0.289-0.854
			L450.747,33.48L450.747,33.48z"/>
		<path fill="#050605" d="M464.745,38.205c-0.324-0.406-0.867-0.84-1.633-1.312l-1.218-0.748c-0.45-0.279-0.778-0.543-0.983-0.789
			l-0.002-0.002c-0.203-0.236-0.306-0.516-0.306-0.855c0.004-0.377,0.131-0.654,0.392-0.862c0.268-0.21,0.576-0.314,0.938-0.314
			c0.469,0,0.939,0.166,1.431,0.512c0.474,0.335,0.826,0.934,1.052,1.811l0.015,0.065h0.399h0.096l-0.321-3.122h-0.36h-0.069
			l-0.017,0.064c-0.032,0.143-0.08,0.246-0.136,0.312c-0.039,0.051-0.127,0.088-0.286,0.088c-0.005,0.002-0.091-0.014-0.214-0.055
			c-0.125-0.037-0.298-0.094-0.521-0.172c-0.449-0.157-0.838-0.238-1.167-0.238c-0.785-0.002-1.426,0.238-1.907,0.721
			c-0.48,0.48-0.724,1.09-0.724,1.809c0,0.549,0.207,1.055,0.609,1.504l0,0h0.003c0.217,0.238,0.508,0.471,0.867,0.697v0.002
			l1.182,0.736c0.678,0.422,1.121,0.74,1.321,0.941c0.31,0.32,0.461,0.686,0.461,1.117c0,0.479-0.151,0.84-0.452,1.104
			c-0.311,0.266-0.665,0.396-1.089,0.396c-0.791,0-1.443-0.307-1.979-0.938c-0.307-0.358-0.576-0.846-0.809-1.461l-0.021-0.056
			h-0.061h-0.316h-0.1l0.436,3.122h0.38h0.073l0.012-0.072c0.02-0.104,0.054-0.199,0.104-0.289c0.034-0.064,0.104-0.104,0.252-0.105
			c0.008,0,0.096,0.018,0.225,0.057c0.133,0.041,0.316,0.102,0.549,0.182c0.475,0.166,0.934,0.248,1.369,0.248
			c0.869,0,1.595-0.25,2.158-0.75c0.565-0.502,0.854-1.137,0.85-1.885C465.224,39.108,465.064,38.617,464.745,38.205L464.745,38.205
			z"/>
		<path fill="#050605" d="M457.826,19.418c-8.421,0.002-15.249,6.828-15.249,15.248c0,8.422,6.828,15.248,15.249,15.25
			c8.421,0,15.249-6.828,15.249-15.25C473.075,26.246,466.247,19.42,457.826,19.418z M468.017,44.859
			c-2.607,2.607-6.209,4.221-10.188,4.221c-7.959,0-14.413-6.453-14.413-14.414c0-3.98,1.613-7.582,4.223-10.19
			c2.61-2.608,6.209-4.22,10.19-4.22c3.979,0,7.581,1.611,10.188,4.22c2.609,2.609,4.224,6.21,4.224,10.19
			C472.238,38.648,470.626,42.248,468.017,44.859z"/>
	</g>
</g>
<g>
	<g>
		<path fill="#FFFFFF" d="M85.248,204.153c-0.26-0.226-0.631-0.419-1.115-0.581c-0.947-0.325-2.119-0.484-3.519-0.484h-0.078
			c-2.106,0.007-4.043,0.379-5.797,1.109l-0.672-0.2c-3.137-0.945-5.756-1.419-7.862-1.419h-0.057
			c-1.026,0.003-2.088,0.143-3.17,0.403c-0.906-1.084-2.182-1.635-3.797-1.633h-0.028c-2.029,0.009-3.964,0.799-5.782,2.351
			c-0.576,0.497-1.006,0.905-1.298,1.238c-0.292,0.331-0.458,0.561-0.477,0.81v0.074l0.149,0.141l0.1,0.102l0.303-0.208l0.021-0.012
			l0.014-0.014c2.253-2.599,4.557-3.879,6.94-3.886h0.03c1.433,0,2.467,0.433,3.182,1.253c-2.525,0.838-4.707,2.171-6.517,4.011
			c-1.862,1.898-2.822,3.789-2.822,5.664v0.02c0.009,0.907,0.274,1.656,0.815,2.197c0.532,0.545,1.27,0.812,2.171,0.812h0.021
			c2.058-0.003,3.942-0.964,5.615-2.844c1.672-1.862,2.513-3.938,2.513-6.197v-0.033c-0.004-0.758-0.165-1.53-0.45-2.317
			c0.992,0.026,1.929,0.107,2.796,0.257c0.609,0.12,1.891,0.438,3.848,0.948l0,0l1.218,0.306c-1.385,0.957-2.612,1.991-3.646,3.116
			c-1.103,1.203-2.283,2.802-3.558,4.795c-1.801,2.816-3.398,4.814-4.773,5.988l0,0c-2.083,1.763-4.201,2.634-6.366,2.642h-0.024
			c-1.278,0-2.325-0.303-3.156-0.907c-0.835-0.614-1.23-1.35-1.241-2.258l0,0v-0.012c0-0.294,0.08-0.603,0.23-0.923
			c-0.034,0.134-0.073,0.274-0.073,0.412v0.012c0,0.407,0.158,0.774,0.452,1.044c0.287,0.278,0.661,0.417,1.072,0.416h0.002l0,0
			c0.502,0,0.946-0.185,1.292-0.534c0.355-0.346,0.535-0.787,0.533-1.278v-0.008l0,0c0-0.477-0.176-0.887-0.515-1.195
			c-0.333-0.302-0.763-0.46-1.249-0.46h-0.011c-0.672,0-1.251,0.249-1.706,0.734c-0.454,0.48-0.685,1.088-0.685,1.782v0.016
			c0,1.143,0.551,2.09,1.592,2.784c1.041,0.695,2.367,1.032,3.98,1.032h0.038c2.682-0.008,5.276-0.629,7.781-1.864
			c1.646-0.808,2.944-1.844,3.893-3.104c0.942-1.26,1.933-3.245,2.993-5.978v0.003c0.682-1.733,1.291-3.019,1.822-3.85
			c0.511-0.806,1.199-1.544,2.051-2.217c2.42,0.703,4.688,1.058,6.793,1.058h0.066c1.846-0.009,3.384-0.216,4.61-0.623
			c0.611-0.204,1.079-0.438,1.403-0.707c0.325-0.272,0.511-0.6,0.511-0.963v-0.004h-0.169l0.169-0.004
			C85.664,204.654,85.511,204.375,85.248,204.153z M82.708,205.807h-0.04c-1.537,0-3.624-0.387-6.248-1.161l0,0l0,0
			c-0.285-0.08-0.51-0.141-0.699-0.193c1.493-0.5,3.082-0.769,4.788-0.772h0.068c1.231,0,2.296,0.129,3.19,0.403
			c0.454,0.133,0.787,0.281,0.994,0.435c0.207,0.157,0.286,0.291,0.286,0.419l0,0c0,0.181-0.154,0.384-0.603,0.58
			C83.999,205.705,83.423,205.799,82.708,205.807z M53.658,212.846c0-1.928,1.01-3.801,3.081-5.615
			c2.042-1.79,4.156-2.686,6.36-2.728c0.119,0.361,0.181,0.737,0.182,1.132v0.028c0,1.982-0.847,4.06-2.572,6.236
			c-1.732,2.19-3.395,3.25-4.96,3.254h-0.012c-0.649-0.004-1.132-0.205-1.515-0.612c-0.372-0.411-0.565-0.96-0.568-1.68
			L53.658,212.846L53.658,212.846z"/>
		<path fill="#FFFFFF" d="M81.197,222.143c-0.637-0.799-1.706-1.653-3.212-2.583l-2.395-1.471c-0.886-0.548-1.531-1.068-1.934-1.552
			l-0.004-0.003c-0.4-0.463-0.602-1.016-0.602-1.683c0.008-0.741,0.257-1.287,0.771-1.696c0.526-0.413,1.134-0.619,1.845-0.619
			c0.921,0,1.848,0.326,2.813,1.007c0.933,0.659,1.626,1.837,2.071,3.562l0.028,0.128h0.785h0.189l-0.633-6.142H80.21h-0.137
			l-0.032,0.126c-0.064,0.281-0.158,0.484-0.268,0.613c-0.076,0.101-0.25,0.173-0.563,0.173c-0.009,0.003-0.178-0.027-0.421-0.107
			c-0.244-0.073-0.585-0.185-1.023-0.338c-0.884-0.31-1.649-0.469-2.296-0.469c-1.544-0.004-2.805,0.469-3.752,1.418
			c-0.946,0.944-1.423,2.144-1.423,3.559c0,1.08,0.407,2.076,1.199,2.959l0,0H71.5c0.426,0.468,0.999,0.926,1.706,1.371v0.004
			l2.326,1.448c1.333,0.83,2.206,1.455,2.599,1.852c0.61,0.629,0.907,1.35,0.907,2.197c0,0.942-0.297,1.653-0.89,2.171
			c-0.611,0.524-1.309,0.78-2.141,0.78c-1.558,0-2.841-0.604-3.895-1.846c-0.604-0.705-1.134-1.664-1.592-2.874l-0.042-0.11h-0.12
			h-0.621H69.54l0.856,6.142h0.747h0.145l0.023-0.142c0.039-0.205,0.106-0.392,0.206-0.568c0.068-0.126,0.204-0.205,0.496-0.207
			c0.016,0,0.188,0.036,0.442,0.113c0.261,0.08,0.623,0.201,1.081,0.357c0.934,0.326,1.837,0.488,2.692,0.488
			c1.71,0,3.137-0.492,4.246-1.476c1.113-0.988,1.682-2.236,1.671-3.708C82.139,223.919,81.827,222.953,81.197,222.143
			L81.197,222.143z"/>
		<path fill="#FFFFFF" d="M67.586,185.182c-16.567,0.004-30,13.434-30,29.998c0,16.569,13.433,29.999,30,30.002
			c16.567,0,30-13.433,30-30.002C97.586,198.615,84.153,185.186,67.586,185.182z M87.635,235.232
			c-5.13,5.129-12.215,8.305-20.045,8.305c-15.659,0-28.356-12.696-28.356-28.358c0-7.831,3.174-14.916,8.309-20.047
			c5.135-5.13,12.215-8.303,20.048-8.303c7.83,0,14.915,3.17,20.045,8.303c5.132,5.132,8.308,12.216,8.308,20.047
			C95.939,223.014,92.767,230.096,87.635,235.232z"/>
	</g>
</g>
<g>
	<g>
		<path fill="#050605" d="M159.466,204.153c-0.26-0.226-0.631-0.419-1.115-0.581c-0.947-0.325-2.119-0.484-3.519-0.484h-0.078
			c-2.106,0.007-4.043,0.379-5.797,1.109l-0.672-0.2c-3.137-0.945-5.756-1.419-7.862-1.419h-0.057
			c-1.026,0.003-2.088,0.143-3.17,0.403c-0.906-1.084-2.182-1.635-3.797-1.633h-0.028c-2.029,0.009-3.964,0.799-5.782,2.351
			c-0.576,0.497-1.006,0.905-1.298,1.238c-0.292,0.331-0.458,0.561-0.477,0.81v0.074l0.149,0.141l0.1,0.102l0.303-0.208l0.021-0.012
			l0.014-0.014c2.253-2.599,4.557-3.879,6.94-3.886h0.03c1.433,0,2.467,0.433,3.182,1.253c-2.525,0.838-4.707,2.171-6.517,4.011
			c-1.862,1.898-2.822,3.789-2.822,5.664v0.02c0.009,0.907,0.274,1.656,0.815,2.197c0.532,0.545,1.27,0.812,2.171,0.812h0.021
			c2.058-0.003,3.942-0.964,5.615-2.844c1.672-1.862,2.513-3.938,2.513-6.197v-0.033c-0.004-0.758-0.165-1.53-0.45-2.317
			c0.992,0.026,1.929,0.107,2.796,0.257c0.609,0.12,1.891,0.438,3.848,0.948l0,0l1.218,0.306c-1.385,0.957-2.612,1.991-3.646,3.116
			c-1.103,1.203-2.283,2.802-3.558,4.795c-1.801,2.816-3.398,4.814-4.773,5.988l0,0c-2.083,1.763-4.201,2.634-6.366,2.642h-0.024
			c-1.278,0-2.325-0.303-3.156-0.907c-0.835-0.614-1.23-1.35-1.241-2.258l0,0v-0.012c0-0.294,0.08-0.603,0.23-0.923
			c-0.034,0.134-0.073,0.274-0.073,0.412v0.012c0,0.407,0.158,0.774,0.452,1.044c0.287,0.278,0.661,0.417,1.072,0.416h0.002l0,0
			c0.502,0,0.946-0.185,1.292-0.534c0.355-0.346,0.535-0.787,0.533-1.278v-0.008l0,0c0-0.477-0.176-0.887-0.515-1.195
			c-0.333-0.302-0.763-0.46-1.249-0.46h-0.011c-0.672,0-1.251,0.249-1.706,0.734c-0.454,0.48-0.685,1.088-0.685,1.782v0.016
			c0,1.143,0.551,2.09,1.592,2.784c1.041,0.695,2.367,1.032,3.98,1.032h0.038c2.682-0.008,5.276-0.629,7.781-1.864
			c1.646-0.808,2.944-1.844,3.893-3.104c0.942-1.26,1.933-3.245,2.993-5.978v0.003c0.682-1.733,1.291-3.019,1.822-3.85
			c0.511-0.806,1.199-1.544,2.051-2.217c2.42,0.703,4.688,1.058,6.793,1.058h0.066c1.846-0.009,3.384-0.216,4.61-0.623
			c0.611-0.204,1.079-0.438,1.403-0.707c0.325-0.272,0.511-0.6,0.511-0.963v-0.004h-0.169l0.169-0.004
			C159.882,204.654,159.729,204.375,159.466,204.153z M156.926,205.807h-0.04c-1.537,0-3.624-0.387-6.248-1.161l0,0l0,0
			c-0.285-0.08-0.51-0.141-0.699-0.193c1.493-0.5,3.082-0.769,4.788-0.772h0.068c1.231,0,2.296,0.129,3.19,0.403
			c0.454,0.133,0.787,0.281,0.994,0.435c0.207,0.157,0.286,0.291,0.286,0.419l0,0c0,0.181-0.154,0.384-0.603,0.58
			C158.217,205.705,157.641,205.799,156.926,205.807z M127.876,212.846c0-1.928,1.01-3.801,3.081-5.615
			c2.042-1.79,4.156-2.686,6.36-2.728c0.119,0.361,0.181,0.737,0.182,1.132v0.028c0,1.982-0.847,4.06-2.572,6.236
			c-1.732,2.19-3.395,3.25-4.96,3.254h-0.012c-0.649-0.004-1.132-0.205-1.515-0.612c-0.372-0.411-0.565-0.96-0.568-1.68
			L127.876,212.846L127.876,212.846z"/>
		<path fill="#050605" d="M155.416,222.143c-0.637-0.799-1.706-1.653-3.212-2.583l-2.395-1.471
			c-0.886-0.548-1.531-1.068-1.934-1.552l-0.004-0.003c-0.4-0.463-0.602-1.016-0.602-1.683c0.008-0.741,0.257-1.287,0.771-1.696
			c0.526-0.413,1.134-0.619,1.845-0.619c0.921,0,1.848,0.326,2.813,1.007c0.933,0.659,1.626,1.837,2.071,3.562l0.028,0.128h0.785
			h0.189l-0.633-6.142h-0.708h-0.137l-0.032,0.126c-0.064,0.281-0.158,0.484-0.268,0.613c-0.076,0.101-0.25,0.173-0.563,0.173
			c-0.009,0.003-0.178-0.027-0.421-0.107c-0.244-0.073-0.585-0.185-1.023-0.338c-0.884-0.31-1.649-0.469-2.296-0.469
			c-1.544-0.004-2.805,0.469-3.752,1.418c-0.946,0.944-1.423,2.144-1.423,3.559c0,1.08,0.407,2.076,1.199,2.959l0,0h0.005
			c0.426,0.468,0.999,0.926,1.706,1.371v0.004l2.326,1.448c1.333,0.83,2.206,1.455,2.599,1.852c0.61,0.629,0.907,1.35,0.907,2.197
			c0,0.942-0.297,1.653-0.89,2.171c-0.611,0.524-1.309,0.78-2.141,0.78c-1.558,0-2.841-0.604-3.895-1.846
			c-0.604-0.705-1.134-1.664-1.592-2.874l-0.042-0.11h-0.12h-0.621h-0.196l0.856,6.142h0.747h0.145l0.023-0.142
			c0.039-0.205,0.106-0.392,0.206-0.568c0.068-0.126,0.204-0.205,0.496-0.207c0.016,0,0.188,0.036,0.442,0.113
			c0.261,0.08,0.623,0.201,1.081,0.357c0.934,0.326,1.837,0.488,2.692,0.488c1.71,0,3.137-0.492,4.246-1.476
			c1.113-0.988,1.682-2.236,1.671-3.708C156.357,223.919,156.045,222.953,155.416,222.143L155.416,222.143z"/>
		<path fill="#050605" d="M141.804,185.182c-16.567,0.004-30,13.434-30,29.998c0,16.569,13.433,29.999,30,30.002
			c16.567,0,30-13.433,30-30.002C171.804,198.615,158.371,185.186,141.804,185.182z M161.853,235.232
			c-5.13,5.129-12.215,8.305-20.045,8.305c-15.659,0-28.356-12.696-28.356-28.358c0-7.831,3.174-14.916,8.309-20.047
			c5.135-5.13,12.215-8.303,20.048-8.303c7.83,0,14.915,3.17,20.045,8.303c5.132,5.132,8.308,12.216,8.308,20.047
			C170.158,223.014,166.985,230.096,161.853,235.232z"/>
	</g>
</g>
<g>
	<g>
		<path d="M77.425,18.206c0.003,0.96-0.973,1.789-2.93,2.476c-1.954,0.694-4.34,1.042-7.146,1.055
			c-2.811,0.009-6.32-0.363-10.535-1.123c-2.212,1.15-4.24,2.866-6.076,5.145c-1.837,2.28-3.806,5.495-5.895,9.641
			c-2.09,4.147-3.625,6.915-4.596,8.305c-0.976,1.386-2.329,2.732-4.059,4.029c-4.494,3.381-9.184,5.08-14.061,5.098
			c-2.625,0.01-4.757-0.537-6.405-1.646c-1.649-1.111-2.478-2.537-2.483-4.285c-0.005-0.893,0.25-1.653,0.766-2.286
			c0.514-0.637,1.143-0.956,1.88-0.959c1.185-0.007,1.778,0.612,1.785,1.85c0.002,0.597-0.184,1.104-0.55,1.521
			c-0.369,0.41-0.812,0.619-1.329,0.623c-0.851,0.003-1.276-0.401-1.279-1.215c-0.002-0.445-0.077-0.664-0.225-0.664
			c-0.296,0-0.443,0.443-0.437,1.33c0.005,1.479,0.766,2.712,2.283,3.705c1.52,0.992,3.367,1.482,5.55,1.476
			c4.839-0.021,9.173-2.215,12.999-6.589c1.804-2.043,4.117-5.411,6.946-10.115c4.626-7.628,9.465-12.653,14.521-15.072
			c-2.186-0.474-5.494-1.127-9.929-1.959c-1.663-0.25-3.327-0.373-4.993-0.367c-0.254,0-1.015,0.039-2.271,0.119
			c0.857,1.586,1.286,3.396,1.296,5.427c0.016,3.952-1.476,7.683-4.474,11.184c-3,3.506-6.213,5.262-9.649,5.275
			c-1.406,0.004-2.564-0.473-3.471-1.428c-0.912-0.957-1.365-2.175-1.373-3.652c-0.007-2.07,0.759-4.356,2.303-6.854
			c1.539-2.5,3.555-4.688,6.045-6.563c2.483-1.875,5.201-3.187,8.156-3.937c-1.444-1.917-3.48-2.87-6.103-2.862
			c-2.219,0.009-4.461,0.666-6.732,1.969c-2.268,1.301-4.245,3.062-5.935,5.286c-0.256,0.333-0.424,0.499-0.496,0.499
			c-0.111,0-0.188-0.051-0.223-0.161c-0.002-0.299,0.731-1.188,2.207-2.67c3.532-3.56,7.24-5.35,11.119-5.365
			c3.029-0.01,5.325,1.038,6.883,3.135c2.215-0.637,4.729-0.958,7.535-0.969c1.442-0.005,2.792,0.09,4.046,0.288
			c1.258,0.198,4.384,0.788,9.375,1.765c4.167-1.824,8.175-2.741,12.017-2.757C75.434,15.887,77.417,16.655,77.425,18.206z
			 M39.196,22.396c-0.005-1.442-0.343-2.768-1.011-3.988c-4.027,0.684-7.779,2.774-11.258,6.282
			c-3.479,3.502-5.213,6.954-5.199,10.354c0.005,1.294,0.407,2.383,1.207,3.267c0.797,0.884,1.786,1.321,2.969,1.317
			c3.067-0.01,6.052-1.906,8.958-5.688C37.765,30.163,39.212,26.312,39.196,22.396z M76.983,18.266
			c-0.005-0.518-0.516-0.96-1.531-1.325c-1.019-0.368-2.306-0.547-3.856-0.541c-3.842,0.014-7.59,0.841-11.238,2.479
			c0.439,0.075,1.643,0.293,3.603,0.652c2.884,0.543,5.454,0.81,7.707,0.803c1.479-0.006,2.732-0.211,3.767-0.626
			C76.467,19.299,76.983,18.819,76.983,18.266z"/>
		<path d="M63.881,42.922c0,0.148-0.093,0.314-0.278,0.498l-1.147,1.612c-3.366,4.706-5.877,7.062-7.533,7.066
			c-0.845,0.004-1.545-0.298-2.099-0.906c-0.555-0.606-0.834-1.39-0.836-2.353c-0.007-1.256,0.665-2.904,2.008-4.938
			c2.109-3.184,3.165-5.076,3.164-5.668c-0.006-0.701-0.376-1.051-1.115-1.049c-1.073,0.008-2.526,1.062-4.366,3.173
			c-1.841,2.108-4.318,6.036-7.438,11.78c-0.554-0.183-1.019-0.271-1.387-0.271c-0.406,0.004-0.941,0.094-1.606,0.285l3.965-7.26
			c0.552-1.043,1.377-2.568,2.474-4.581c0.59-0.968,2.404-4.093,5.446-9.381l4.08-6.996c0.548,0.107,0.998,0.167,1.362,0.167
			c0.687-0.008,1.356-0.078,2.005-0.217c-1.82,3.019-4.57,7.511-8.247,13.481c-0.114,0.184-1.516,2.515-4.208,6.988
			c3.39-4.99,6.062-7.493,8.025-7.5c0.776-0.004,1.443,0.326,2.003,0.986c0.556,0.662,0.837,1.47,0.841,2.426
			c0.005,1.219-0.783,3.004-2.363,5.367c-1.764,2.619-2.645,4.262-2.638,4.92c0,0.777,0.387,1.16,1.164,1.158
			c1.404-0.008,3.724-2.288,6.958-6.844l0.827-1.168l0.499-0.609c0.07-0.186,0.182-0.279,0.33-0.279
			C63.842,42.811,63.881,42.85,63.881,42.922z"/>
		<path d="M77.572,42.923c0.004,0.076-0.168,0.316-0.497,0.726l-1.158,1.443c-3.716,4.635-6.901,6.955-9.561,6.965
			c-1.294,0.006-2.368-0.442-3.22-1.34c-0.857-0.901-1.283-2.031-1.289-3.393c-0.012-3.24,2.249-6.1,6.785-8.582
			c2.358-1.299,4.298-1.951,5.812-1.957c0.629-0.004,1.171,0.191,1.634,0.572c0.467,0.387,0.698,0.854,0.7,1.405
			c0.006,1.29-0.832,2.388-2.511,3.298c-1.678,0.905-4.509,1.773-8.497,2.597c-1.211,1.845-1.813,3.396-1.809,4.646
			c0.005,1.549,0.84,2.316,2.5,2.312c2.846-0.012,6.329-2.816,10.444-8.411c0.22-0.293,0.404-0.447,0.552-0.447
			C77.533,42.795,77.572,42.852,77.572,42.923z M75.279,37.947c0-0.593-0.318-0.884-0.945-0.884
			c-0.959,0.003-2.214,0.671-3.759,2.009c-1.547,1.336-3.076,3.06-4.585,5.172c2.587-0.676,4.783-1.627,6.586-2.852
			C74.382,40.166,75.284,39.018,75.279,37.947z"/>
	</g>
	<g>
		<path d="M84.813,40.559c0.897,2.383,1.95,4.285,3.157,5.699c2.104,2.472,4.718,3.706,7.84,3.706c1.689,0,3.153-0.536,4.387-1.603
			c1.233-1.072,1.852-2.569,1.852-4.485c0-1.729-0.623-3.232-1.865-4.511c-0.807-0.812-2.516-2.029-5.119-3.653l-4.526-2.825
			c-1.365-0.864-2.45-1.737-3.261-2.617c-1.504-1.676-2.257-3.524-2.257-5.546c0-2.677,0.892-4.905,2.67-6.686
			c1.778-1.779,4.138-2.669,7.076-2.669c1.207,0,2.663,0.297,4.364,0.895c1.703,0.595,2.676,0.894,2.918,0.894
			c0.656,0,1.109-0.156,1.359-0.467c0.247-0.31,0.441-0.75,0.582-1.322h1.088l1.166,11.297h-1.269
			c-0.864-3.4-2.249-5.776-4.159-7.124c-1.908-1.347-3.797-2.023-5.662-2.023c-1.453,0-2.718,0.429-3.796,1.284
			c-1.082,0.855-1.622,2.045-1.622,3.564c0,1.363,0.414,2.529,1.242,3.498c0.826,0.983,2.112,2.016,3.856,3.082l4.663,2.877
			c2.916,1.8,4.973,3.452,6.172,4.949c1.18,1.521,1.769,3.319,1.769,5.394c0,2.78-1.049,5.104-3.15,6.969
			c-2.099,1.867-4.779,2.801-8.044,2.801c-1.642,0-3.357-0.311-5.146-0.934c-1.789-0.622-2.813-0.934-3.073-0.934
			c-0.619,0-1.039,0.19-1.257,0.57c-0.216,0.381-0.357,0.785-0.427,1.216h-1.164l-1.583-11.296H84.813L84.813,40.559z"/>
		<path d="M124.57,16.117v0.988c-2.041,0.137-3.36,0.479-3.967,1.027c-0.604,0.542-0.907,1.789-0.907,3.742v16.974
			c0,2.78,0.38,4.95,1.142,6.504c1.416,2.832,4.103,4.251,8.057,4.251c4.338,0,7.25-1.451,8.736-4.354
			c0.83-1.624,1.242-4.128,1.242-7.517v-13.81c0-2.888-0.345-4.694-1.038-5.428c-0.688-0.736-2.001-1.197-3.935-1.388v-0.988h12.283
			v0.988c-2.059,0.224-3.399,0.721-4.032,1.487c-0.63,0.771-0.942,2.545-0.942,5.329v13.811c0,3.665-0.566,6.523-1.688,8.578
			c-2.072,3.781-6.01,5.676-11.816,5.676c-5.738,0-9.641-1.867-11.715-5.598c-1.124-2.004-1.684-4.648-1.684-7.928V21.874
			c0-1.936-0.298-3.177-0.896-3.722c-0.595-0.542-1.896-0.89-3.9-1.047v-0.988H124.57z"/>
		<path d="M147.972,50.249c2.159-0.153,3.555-0.477,4.193-0.964c0.643-0.49,0.962-1.758,0.962-3.801v-23.61
			c0-1.953-0.319-3.208-0.962-3.771c-0.639-0.562-2.034-0.894-4.193-0.998v-0.988h15.7v0.988c-2.159,0.104-3.559,0.436-4.196,0.998
			c-0.641,0.562-0.959,1.817-0.959,3.771v23.61c0,2.043,0.318,3.311,0.959,3.801c0.638,0.487,2.037,0.811,4.196,0.964v0.989h-15.7
			V50.249z"/>
		<path d="M165.826,16.117h30.007l0.286,9.022h-1.27c-0.621-2.834-1.41-4.68-2.373-5.534c-0.955-0.856-2.976-1.28-6.05-1.28h-2.952
			v27.159c0,2.043,0.32,3.311,0.958,3.801c0.64,0.487,2.036,0.811,4.195,0.964v0.989H173.16v-0.989
			c2.244-0.171,3.647-0.541,4.199-1.108c0.553-0.564,0.825-1.992,0.825-4.281V18.325h-2.979c-2.936,0-4.938,0.424-5.998,1.267
			c-1.062,0.847-1.861,2.693-2.396,5.547h-1.295L165.826,16.117z"/>
		<path d="M197.802,50.249c1.953-0.204,3.215-0.553,3.797-1.043c0.579-0.487,0.869-1.729,0.869-3.722v-23.61
			c0-1.883-0.285-3.114-0.854-3.691c-0.573-0.582-1.843-0.94-3.812-1.078v-0.988h28.193l0.182,7.595h-1.344
			c-0.451-2.339-1.125-3.852-2.024-4.541c-0.897-0.685-2.901-1.029-6.009-1.029h-7.226c-0.779,0-1.263,0.126-1.446,0.375
			c-0.182,0.254-0.27,0.723-0.27,1.412v11.844h8.189c2.262,0,3.703-0.336,4.326-1.004c0.623-0.674,1.123-2.031,1.505-4.073h1.241
			v12.257h-1.241c-0.398-2.056-0.908-3.418-1.534-4.084c-0.619-0.665-2.053-0.997-4.297-0.997h-8.189V47.01
			c0,1.057,0.33,1.676,0.998,1.867c0.666,0.191,2.662,0.285,5.982,0.285c3.598,0,6.254-0.395,7.968-1.178
			c1.712-0.792,3.251-2.693,4.616-5.715h1.477l-2.408,8.969h-28.689V50.249L197.802,50.249z"/>
	</g>
</g>
<g>
	
		<rect x="15.094" y="94.544" transform="matrix(-0.7071 -0.7071 0.7071 -0.7071 -26.5007 179.1109)" fill="#FFFFFF" width="17.501" height="1"/>
	
		<rect x="15.094" y="94.544" transform="matrix(0.7071 -0.7071 0.7071 0.7071 -60.2223 44.6985)" fill="#FFFFFF" width="17.501" height="1"/>
</g>
<g>
	<polygon points="46.02,98.396 51.514,92.901 57.01,98.396 57.717,97.689 51.514,91.487 45.312,97.689 	"/>
</g>
<g>
	<rect x="73.1" y="94.544" transform="matrix(-0.7071 -0.7071 0.7071 -0.7071 72.5218 220.1264)" width="17.501" height="1"/>
	<rect x="73.1" y="94.544" transform="matrix(0.7071 -0.7071 0.7071 0.7071 -43.2329 85.7173)" width="17.501" height="1"/>
</g>
<g>
	<polygon fill="#FFFFFF" points="104.026,98.396 109.52,92.901 115.016,98.396 115.723,97.689 109.52,91.487 103.319,97.689 	"/>
</g>
<g>
	<g>
		<path fill="#FFFFFF" d="M47.029,141.894c0.002,0.499-0.506,0.929-1.522,1.286c-1.015,0.361-2.256,0.542-3.715,0.548
			c-1.459,0.005-3.283-0.188-5.474-0.583c-1.149,0.598-2.204,1.49-3.157,2.674c-0.955,1.185-1.979,2.855-3.063,5.01
			c-1.086,2.155-1.884,3.593-2.389,4.315c-0.507,0.72-1.21,1.42-2.108,2.093c-2.336,1.757-4.771,2.64-7.309,2.648
			c-1.363,0.005-2.47-0.279-3.326-0.854c-0.858-0.577-1.289-1.318-1.291-2.228c-0.003-0.464,0.13-0.858,0.397-1.188
			c0.268-0.331,0.594-0.496,0.977-0.498c0.614-0.003,0.925,0.318,0.928,0.961c0.001,0.311-0.095,0.574-0.285,0.791
			c-0.192,0.213-0.422,0.322-0.691,0.324c-0.441,0.001-0.663-0.208-0.664-0.632c-0.001-0.231-0.041-0.345-0.117-0.345
			c-0.153,0-0.23,0.23-0.227,0.691c0.003,0.768,0.397,1.41,1.188,1.925c0.789,0.516,1.749,0.771,2.883,0.767
			c2.515-0.011,4.767-1.151,6.755-3.423c0.938-1.062,2.14-2.812,3.61-5.257c2.403-3.964,4.917-6.576,7.545-7.833
			c-1.135-0.246-2.854-0.585-5.159-1.018c-0.864-0.13-1.729-0.193-2.595-0.191c-0.132,0-0.527,0.021-1.181,0.062
			c0.446,0.824,0.669,1.765,0.674,2.82c0.009,2.054-0.767,3.993-2.324,5.812c-1.561,1.821-3.229,2.733-5.015,2.742
			c-0.731,0.001-1.333-0.246-1.804-0.742c-0.475-0.498-0.709-1.13-0.714-1.898c-0.003-1.076,0.395-2.264,1.198-3.562
			c0.799-1.299,1.847-2.436,3.14-3.411c1.291-0.974,2.703-1.656,4.238-2.045c-0.75-0.996-1.808-1.491-3.171-1.487
			c-1.152,0.004-2.318,0.346-3.5,1.023c-1.176,0.676-2.205,1.591-3.082,2.747c-0.133,0.174-0.221,0.259-0.258,0.259
			c-0.059,0-0.097-0.026-0.116-0.083c-0.001-0.155,0.38-0.617,1.146-1.388c1.837-1.85,3.764-2.78,5.778-2.788
			c1.574-0.005,2.769,0.539,3.577,1.629c1.151-0.332,2.458-0.499,3.916-0.504c0.75-0.003,1.451,0.047,2.103,0.15
			c0.653,0.103,2.278,0.409,4.871,0.917c2.166-0.948,4.25-1.424,6.246-1.433C45.994,140.688,47.024,141.087,47.029,141.894z
			 M27.162,144.071c-0.001-0.75-0.177-1.438-0.524-2.073c-2.094,0.355-4.043,1.442-5.851,3.265c-1.808,1.82-2.709,3.614-2.702,5.38
			c0.003,0.672,0.211,1.238,0.627,1.698c0.415,0.459,0.93,0.687,1.544,0.685c1.594-0.005,3.145-0.991,4.655-2.956
			C26.419,148.107,27.171,146.106,27.162,144.071z M46.798,141.924c-0.001-0.269-0.268-0.499-0.795-0.688
			c-0.53-0.191-1.199-0.284-2.005-0.281c-1.996,0.008-3.943,0.438-5.84,1.288c0.229,0.039,0.854,0.152,1.872,0.339
			c1.499,0.282,2.834,0.421,4.005,0.418c0.769-0.003,1.421-0.11,1.958-0.326C46.531,142.462,46.798,142.212,46.798,141.924z"/>
		<path fill="#FFFFFF" d="M39.99,154.737c0,0.077-0.048,0.164-0.146,0.259l-0.595,0.838c-1.749,2.445-3.056,3.669-3.915,3.672
			c-0.438,0.001-0.802-0.155-1.092-0.472c-0.287-0.314-0.432-0.722-0.433-1.222c-0.003-0.652,0.346-1.51,1.044-2.566
			c1.096-1.654,1.644-2.637,1.644-2.945c-0.004-0.364-0.196-0.545-0.58-0.545c-0.557,0.004-1.312,0.552-2.269,1.649
			c-0.957,1.096-2.244,3.137-3.865,6.122c-0.287-0.095-0.529-0.142-0.721-0.142c-0.211,0.002-0.489,0.049-0.834,0.148l2.06-3.772
			c0.286-0.542,0.716-1.335,1.285-2.381c0.307-0.502,1.25-2.126,2.831-4.875l2.12-3.635c0.285,0.056,0.519,0.087,0.708,0.087
			c0.356-0.004,0.705-0.041,1.042-0.113c-0.946,1.569-2.375,3.903-4.286,7.006c-0.061,0.095-0.788,1.307-2.187,3.631
			c1.762-2.593,3.15-3.894,4.17-3.897c0.403-0.003,0.751,0.169,1.04,0.512c0.29,0.344,0.438,0.763,0.438,1.26
			c0.002,0.633-0.407,1.562-1.228,2.789c-0.917,1.361-1.374,2.215-1.371,2.557c0,0.403,0.2,0.602,0.604,0.602
			c0.73-0.004,1.936-1.188,3.615-3.557l0.43-0.607l0.259-0.316c0.038-0.097,0.096-0.146,0.173-0.146
			C39.97,154.679,39.99,154.7,39.99,154.737z"/>
		<path fill="#FFFFFF" d="M47.105,154.738c0.002,0.039-0.088,0.164-0.259,0.377l-0.602,0.75c-1.931,2.409-3.587,3.615-4.968,3.62
			c-0.673,0.003-1.23-0.23-1.674-0.696c-0.445-0.468-0.667-1.056-0.67-1.763c-0.007-1.684,1.169-3.17,3.526-4.46
			c1.226-0.674,2.234-1.014,3.02-1.016c0.327-0.002,0.609,0.099,0.851,0.297c0.242,0.2,0.362,0.443,0.363,0.73
			c0.003,0.67-0.433,1.24-1.306,1.713c-0.871,0.471-2.342,0.921-4.415,1.35c-0.629,0.959-0.941,1.766-0.939,2.415
			c0.003,0.805,0.437,1.203,1.299,1.201c1.479-0.006,3.289-1.463,5.428-4.371c0.114-0.152,0.21-0.232,0.286-0.232
			C47.084,154.671,47.105,154.701,47.105,154.738z M45.913,152.152c0-0.308-0.165-0.459-0.49-0.459
			c-0.499,0.001-1.151,0.349-1.954,1.043c-0.803,0.694-1.599,1.59-2.382,2.688c1.344-0.352,2.485-0.845,3.422-1.482
			C45.446,153.306,45.916,152.709,45.913,152.152z"/>
	</g>
	<g>
		<path fill="#FFFFFF" d="M50.868,153.509c0.466,1.239,1.014,2.227,1.641,2.962c1.094,1.284,2.451,1.926,4.075,1.926
			c0.876,0,1.639-0.278,2.278-0.833c0.642-0.557,0.963-1.335,0.963-2.331c0-0.899-0.324-1.68-0.97-2.344
			c-0.419-0.422-1.308-1.055-2.661-1.898l-2.352-1.468c-0.708-0.449-1.273-0.902-1.694-1.36c-0.781-0.871-1.172-1.832-1.172-2.882
			c0-1.391,0.463-2.549,1.386-3.474c0.925-0.925,2.15-1.387,3.679-1.387c0.628,0,1.383,0.154,2.268,0.465
			c0.885,0.311,1.392,0.465,1.517,0.465c0.341,0,0.576-0.081,0.706-0.243c0.128-0.161,0.229-0.389,0.303-0.687H61.4l0.605,5.871
			h-0.66c-0.447-1.767-1.168-3.001-2.16-3.702c-0.992-0.701-1.973-1.052-2.943-1.052c-0.755,0-1.411,0.223-1.973,0.667
			c-0.562,0.444-0.843,1.062-0.843,1.852c0,0.708,0.216,1.314,0.646,1.818c0.429,0.51,1.098,1.047,2.003,1.601l2.424,1.495
			c1.516,0.937,2.585,1.794,3.207,2.572c0.614,0.791,0.92,1.725,0.92,2.803c0,1.445-0.545,2.652-1.638,3.622
			c-1.09,0.97-2.483,1.455-4.181,1.455c-0.853,0-1.744-0.161-2.673-0.485c-0.93-0.323-1.463-0.486-1.598-0.486
			c-0.322,0-0.539,0.1-0.653,0.297c-0.111,0.198-0.186,0.408-0.222,0.632h-0.604l-0.822-5.87L50.868,153.509L50.868,153.509z"/>
		<path fill="#FFFFFF" d="M71.529,140.808v0.514c-1.062,0.071-1.747,0.249-2.062,0.534c-0.313,0.281-0.472,0.929-0.472,1.944v8.82
			c0,1.445,0.198,2.573,0.595,3.38c0.735,1.472,2.131,2.209,4.187,2.209c2.254,0,3.767-0.754,4.539-2.263
			c0.432-0.844,0.645-2.146,0.645-3.906v-7.177c0-1.5-0.179-2.439-0.538-2.82c-0.357-0.383-1.04-0.622-2.046-0.721v-0.514h6.384
			v0.514c-1.069,0.117-1.767,0.375-2.095,0.771c-0.327,0.4-0.489,1.323-0.489,2.77v7.177c0,1.904-0.294,3.39-0.877,4.458
			c-1.077,1.964-3.124,2.948-6.141,2.949c-2.982,0-5.011-0.97-6.088-2.909c-0.585-1.041-0.876-2.416-0.876-4.12v-8.62
			c0-1.005-0.154-1.65-0.465-1.934c-0.309-0.282-0.984-0.462-2.026-0.544v-0.514h7.825V140.808z"/>
		<path fill="#FFFFFF" d="M83.69,158.545c1.122-0.079,1.848-0.248,2.179-0.501c0.333-0.254,0.5-0.913,0.5-1.976V143.8
			c0-1.015-0.167-1.667-0.5-1.959c-0.331-0.292-1.057-0.465-2.179-0.519v-0.514h8.157v0.514c-1.121,0.054-1.848,0.226-2.18,0.519
			c-0.332,0.292-0.498,0.944-0.498,1.959v12.269c0,1.062,0.166,1.722,0.498,1.976c0.332,0.253,1.059,0.422,2.18,0.501v0.514H83.69
			V158.545z"/>
		<path fill="#FFFFFF" d="M92.967,140.808h15.594l0.148,4.688h-0.66c-0.323-1.473-0.732-2.432-1.232-2.875
			c-0.497-0.445-1.547-0.666-3.144-0.666h-1.534v14.113c0,1.062,0.166,1.722,0.497,1.976c0.333,0.253,1.058,0.422,2.18,0.501v0.514
			h-8.038v-0.514c1.166-0.088,1.896-0.281,2.182-0.575c0.288-0.294,0.431-1.035,0.431-2.226v-13.789h-1.549
			c-1.525,0-2.565,0.22-3.117,0.658c-0.551,0.439-0.967,1.4-1.245,2.883h-0.673L92.967,140.808z"/>
		<path fill="#FFFFFF" d="M109.584,158.545c1.016-0.106,1.671-0.287,1.973-0.542c0.302-0.253,0.451-0.898,0.451-1.935V143.8
			c0-0.979-0.147-1.618-0.443-1.918c-0.298-0.303-0.957-0.489-1.98-0.56v-0.514h14.651l0.095,3.947h-0.699
			c-0.235-1.215-0.585-2.001-1.053-2.36c-0.466-0.355-1.507-0.534-3.123-0.534h-3.754c-0.404,0-0.656,0.066-0.751,0.194
			c-0.095,0.132-0.141,0.376-0.141,0.734v6.155h4.256c1.175,0,1.925-0.174,2.248-0.522c0.324-0.351,0.584-1.055,0.783-2.117h0.645
			v6.37h-0.645c-0.208-1.069-0.474-1.777-0.798-2.123c-0.322-0.345-1.066-0.518-2.233-0.518h-4.256v6.827
			c0,0.549,0.172,0.871,0.52,0.97c0.345,0.1,1.382,0.149,3.107,0.149c1.87,0,3.25-0.205,4.141-0.613
			c0.892-0.411,1.689-1.399,2.399-2.969h0.768l-1.251,4.661h-14.909L109.584,158.545L109.584,158.545z"/>
	</g>
</g>
<g>
	<g>
		<path d="M172.352,141.894c0.002,0.499-0.506,0.929-1.522,1.286c-1.015,0.361-2.256,0.542-3.715,0.548
			c-1.459,0.005-3.283-0.188-5.474-0.583c-1.149,0.598-2.204,1.49-3.157,2.674c-0.955,1.185-1.979,2.855-3.063,5.01
			c-1.086,2.155-1.884,3.593-2.389,4.315c-0.507,0.72-1.21,1.42-2.108,2.093c-2.336,1.757-4.771,2.64-7.309,2.648
			c-1.363,0.005-2.47-0.279-3.326-0.854c-0.858-0.577-1.289-1.318-1.291-2.228c-0.003-0.464,0.13-0.858,0.397-1.188
			c0.268-0.331,0.594-0.496,0.977-0.498c0.614-0.003,0.925,0.318,0.928,0.961c0.001,0.311-0.095,0.574-0.285,0.791
			c-0.192,0.213-0.422,0.322-0.691,0.324c-0.441,0.001-0.663-0.208-0.664-0.632c-0.001-0.231-0.041-0.345-0.117-0.345
			c-0.153,0-0.23,0.23-0.227,0.691c0.003,0.768,0.397,1.41,1.188,1.925c0.789,0.516,1.749,0.771,2.883,0.767
			c2.515-0.011,4.767-1.151,6.755-3.423c0.938-1.062,2.14-2.812,3.61-5.257c2.403-3.964,4.917-6.576,7.545-7.833
			c-1.135-0.246-2.854-0.585-5.159-1.018c-0.864-0.13-1.729-0.193-2.595-0.191c-0.132,0-0.527,0.021-1.181,0.062
			c0.446,0.824,0.669,1.765,0.674,2.82c0.009,2.054-0.767,3.993-2.324,5.812c-1.561,1.821-3.229,2.733-5.015,2.742
			c-0.731,0.001-1.333-0.246-1.804-0.742c-0.475-0.498-0.709-1.13-0.714-1.898c-0.003-1.076,0.395-2.264,1.198-3.562
			c0.799-1.299,1.847-2.436,3.14-3.411c1.291-0.974,2.703-1.656,4.238-2.045c-0.75-0.996-1.808-1.491-3.171-1.487
			c-1.152,0.004-2.318,0.346-3.5,1.023c-1.176,0.676-2.205,1.591-3.082,2.747c-0.133,0.174-0.221,0.259-0.258,0.259
			c-0.059,0-0.097-0.026-0.116-0.083c-0.001-0.155,0.38-0.617,1.146-1.388c1.837-1.85,3.764-2.78,5.778-2.788
			c1.574-0.005,2.769,0.539,3.577,1.629c1.151-0.332,2.458-0.499,3.916-0.504c0.75-0.003,1.451,0.047,2.103,0.15
			c0.653,0.103,2.278,0.409,4.871,0.917c2.166-0.948,4.25-1.424,6.246-1.433C171.317,140.688,172.347,141.087,172.352,141.894z
			 M152.485,144.071c-0.001-0.75-0.177-1.438-0.524-2.073c-2.094,0.355-4.043,1.442-5.851,3.265c-1.808,1.82-2.709,3.614-2.702,5.38
			c0.003,0.672,0.211,1.238,0.627,1.698c0.415,0.459,0.93,0.687,1.544,0.685c1.594-0.005,3.145-0.991,4.655-2.956
			C151.742,148.107,152.494,146.106,152.485,144.071z M172.121,141.924c-0.001-0.269-0.268-0.499-0.795-0.688
			c-0.53-0.191-1.199-0.284-2.005-0.281c-1.996,0.008-3.943,0.438-5.84,1.288c0.229,0.039,0.854,0.152,1.872,0.339
			c1.499,0.282,2.834,0.421,4.005,0.418c0.769-0.003,1.421-0.11,1.958-0.326C171.854,142.462,172.121,142.212,172.121,141.924z"/>
		<path d="M165.313,154.737c0,0.077-0.048,0.164-0.146,0.259l-0.595,0.838c-1.749,2.445-3.056,3.669-3.915,3.672
			c-0.438,0.001-0.802-0.155-1.092-0.472c-0.287-0.314-0.432-0.722-0.433-1.222c-0.003-0.652,0.346-1.51,1.044-2.566
			c1.096-1.654,1.644-2.637,1.644-2.945c-0.004-0.364-0.196-0.545-0.58-0.545c-0.557,0.004-1.312,0.552-2.269,1.649
			c-0.957,1.096-2.244,3.137-3.865,6.122c-0.287-0.095-0.529-0.142-0.721-0.142c-0.211,0.002-0.489,0.049-0.834,0.148l2.06-3.772
			c0.286-0.542,0.716-1.335,1.285-2.381c0.307-0.502,1.25-2.126,2.831-4.875l2.12-3.635c0.285,0.056,0.519,0.087,0.708,0.087
			c0.356-0.004,0.705-0.041,1.042-0.113c-0.946,1.569-2.375,3.903-4.286,7.006c-0.061,0.095-0.788,1.307-2.187,3.631
			c1.762-2.593,3.15-3.894,4.17-3.897c0.403-0.003,0.751,0.169,1.04,0.512c0.29,0.344,0.438,0.763,0.438,1.26
			c0.002,0.633-0.407,1.562-1.228,2.789c-0.917,1.361-1.374,2.215-1.371,2.557c0,0.403,0.2,0.602,0.604,0.602
			c0.73-0.004,1.936-1.188,3.615-3.557l0.43-0.607l0.259-0.316c0.038-0.097,0.096-0.146,0.173-0.146
			C165.293,154.679,165.313,154.7,165.313,154.737z"/>
		<path d="M172.428,154.738c0.002,0.039-0.088,0.164-0.259,0.377l-0.602,0.75c-1.931,2.409-3.587,3.615-4.968,3.62
			c-0.673,0.003-1.23-0.23-1.674-0.696c-0.445-0.468-0.667-1.056-0.67-1.763c-0.007-1.684,1.169-3.17,3.526-4.46
			c1.226-0.674,2.234-1.014,3.02-1.016c0.327-0.002,0.609,0.099,0.851,0.297c0.242,0.2,0.362,0.443,0.363,0.73
			c0.003,0.67-0.433,1.24-1.306,1.713c-0.871,0.471-2.342,0.921-4.415,1.35c-0.629,0.959-0.941,1.766-0.939,2.415
			c0.003,0.805,0.437,1.203,1.299,1.201c1.479-0.006,3.289-1.463,5.428-4.371c0.114-0.152,0.21-0.232,0.286-0.232
			C172.407,154.671,172.428,154.701,172.428,154.738z M171.236,152.152c0-0.308-0.165-0.459-0.49-0.459
			c-0.499,0.001-1.151,0.349-1.954,1.043c-0.803,0.694-1.599,1.59-2.382,2.688c1.344-0.352,2.485-0.845,3.422-1.482
			C170.769,153.306,171.239,152.709,171.236,152.152z"/>
	</g>
	<g>
		<path d="M176.191,153.509c0.466,1.239,1.014,2.227,1.641,2.962c1.094,1.284,2.451,1.926,4.075,1.926
			c0.876,0,1.639-0.278,2.278-0.833c0.642-0.557,0.963-1.335,0.963-2.331c0-0.899-0.324-1.68-0.97-2.344
			c-0.419-0.422-1.308-1.055-2.661-1.898l-2.352-1.468c-0.708-0.449-1.273-0.902-1.694-1.36c-0.781-0.871-1.172-1.832-1.172-2.882
			c0-1.391,0.463-2.549,1.386-3.474c0.925-0.925,2.15-1.387,3.679-1.387c0.628,0,1.383,0.154,2.268,0.465
			c0.885,0.311,1.392,0.465,1.517,0.465c0.341,0,0.576-0.081,0.706-0.243c0.128-0.161,0.229-0.389,0.303-0.687h0.565l0.605,5.871
			h-0.66c-0.447-1.767-1.168-3.001-2.16-3.702c-0.992-0.701-1.973-1.052-2.943-1.052c-0.755,0-1.411,0.223-1.973,0.667
			c-0.562,0.444-0.843,1.062-0.843,1.852c0,0.708,0.216,1.314,0.646,1.818c0.429,0.51,1.098,1.047,2.003,1.601l2.424,1.495
			c1.516,0.937,2.585,1.794,3.207,2.572c0.614,0.791,0.92,1.725,0.92,2.803c0,1.445-0.545,2.652-1.638,3.622
			c-1.09,0.97-2.483,1.455-4.181,1.455c-0.853,0-1.744-0.161-2.673-0.485c-0.93-0.323-1.463-0.486-1.598-0.486
			c-0.322,0-0.539,0.1-0.653,0.297c-0.111,0.198-0.186,0.408-0.222,0.632h-0.604l-0.822-5.87L176.191,153.509L176.191,153.509z"/>
		<path d="M196.852,140.808v0.514c-1.062,0.071-1.747,0.249-2.062,0.534c-0.313,0.281-0.472,0.929-0.472,1.944v8.82
			c0,1.445,0.198,2.573,0.595,3.38c0.735,1.472,2.131,2.209,4.187,2.209c2.254,0,3.767-0.754,4.539-2.263
			c0.432-0.844,0.645-2.146,0.645-3.906v-7.177c0-1.5-0.179-2.439-0.538-2.82c-0.357-0.383-1.04-0.622-2.046-0.721v-0.514h6.384
			v0.514c-1.069,0.117-1.767,0.375-2.095,0.771c-0.327,0.4-0.489,1.323-0.489,2.77v7.177c0,1.904-0.294,3.39-0.877,4.458
			c-1.077,1.964-3.124,2.948-6.141,2.949c-2.982,0-5.011-0.97-6.088-2.909c-0.585-1.041-0.876-2.416-0.876-4.12v-8.62
			c0-1.005-0.154-1.65-0.465-1.934c-0.309-0.282-0.984-0.462-2.026-0.544v-0.514h7.825V140.808z"/>
		<path d="M209.013,158.545c1.122-0.079,1.848-0.248,2.179-0.501c0.333-0.254,0.5-0.913,0.5-1.976V143.8
			c0-1.015-0.167-1.667-0.5-1.959c-0.331-0.292-1.057-0.465-2.179-0.519v-0.514h8.157v0.514c-1.121,0.054-1.848,0.226-2.18,0.519
			c-0.332,0.292-0.498,0.944-0.498,1.959v12.269c0,1.062,0.166,1.722,0.498,1.976c0.332,0.253,1.059,0.422,2.18,0.501v0.514h-8.157
			V158.545z"/>
		<path d="M218.29,140.808h15.594l0.148,4.688h-0.66c-0.323-1.473-0.732-2.432-1.232-2.875c-0.497-0.445-1.547-0.666-3.144-0.666
			h-1.534v14.113c0,1.062,0.166,1.722,0.497,1.976c0.333,0.253,1.058,0.422,2.18,0.501v0.514h-8.038v-0.514
			c1.166-0.088,1.896-0.281,2.182-0.575c0.288-0.294,0.431-1.035,0.431-2.226v-13.789h-1.549c-1.525,0-2.565,0.22-3.117,0.658
			c-0.551,0.439-0.967,1.4-1.245,2.883h-0.673L218.29,140.808z"/>
		<path d="M234.907,158.545c1.016-0.106,1.671-0.287,1.973-0.542c0.302-0.253,0.451-0.898,0.451-1.935V143.8
			c0-0.979-0.147-1.618-0.443-1.918c-0.298-0.303-0.957-0.489-1.98-0.56v-0.514h14.651l0.095,3.947h-0.699
			c-0.235-1.215-0.585-2.001-1.053-2.36c-0.466-0.355-1.507-0.534-3.123-0.534h-3.754c-0.404,0-0.656,0.066-0.751,0.194
			c-0.095,0.132-0.141,0.376-0.141,0.734v6.155h4.256c1.175,0,1.925-0.174,2.248-0.522c0.324-0.351,0.584-1.055,0.783-2.117h0.645
			v6.37h-0.645c-0.208-1.069-0.474-1.777-0.798-2.123c-0.322-0.345-1.066-0.518-2.233-0.518h-4.256v6.827
			c0,0.549,0.172,0.871,0.52,0.97c0.345,0.1,1.382,0.149,3.107,0.149c1.87,0,3.25-0.205,4.141-0.613
			c0.892-0.411,1.689-1.399,2.399-2.969h0.768l-1.251,4.661h-14.909L234.907,158.545L234.907,158.545z"/>
	</g>
</g>
</svg>
